<svg id="Capa_1" enable-background="new 0 0 512 512" height="512" viewBox="0 0 512 512" width="512" xmlns="http://www.w3.org/2000/svg"><g><g><g><path d="m316 481h-120c-74.443 0-135-60.557-135-135 0-38.877 16.611-75.791 45.586-101.265l9.932-8.745 9.902 8.774c19.101 16.92 43.828 26.236 69.58 26.236h120c25.488 0 50.215-9.346 69.639-26.294l9.902-8.643 9.873 8.672c18.018 15.835 31.377 36.343 38.848 59.59l67.738 41.675-67.738 41.689c-17.959 55.225-69.873 93.311-128.262 93.311z" fill="#ffdf40"/></g></g><path d="m444.262 387.689 67.738-41.689-67.738-41.675c-7.471-23.247-20.83-43.755-38.848-59.59l-9.873-8.672-9.902 8.643c-19.424 16.948-44.151 26.294-69.639 26.294h-60v210h60c58.389 0 110.303-38.086 128.262-93.311z" fill="#ffbe40"/><g><path d="m316 301h-120c-60.344 0-111.524-39.61-128.35-93.369l-67.65-41.631 67.709-41.675c17.666-55.239 69.609-93.325 128.291-93.325h120c74.443 0 135 60.557 135 135 0 74.057-59.955 135-135 135z" fill="#7adfe3"/></g><path d="m316 31h-60v270h60c75.044 0 135-60.943 135-135 0-74.443-60.557-135-135-135z" fill="#55b3dc"/><g id="Chat_Bubble_19_"><g><path d="m181 181h150v30h-150z" fill="#55b3dc"/></g><g><path d="m181 121h150v30h-150z" fill="#55b3dc"/></g></g><g fill="#3898c2"><path d="m256 181h75v30h-75z"/><path d="m256 121h75v30h-75z"/></g></g></svg>