<svg id="Capa_1" enable-background="new 0 0 511.979 511.979" height="512" viewBox="0 0 511.979 511.979" width="512" xmlns="http://www.w3.org/2000/svg"><path d="m507.585 80.394-76-76c-2.813-2.813-6.628-4.394-10.606-4.394h-117c-3.983 0-7.804 1.584-10.617 4.404l-280.203 280.777c-17.546 17.545-17.546 46.094 0 63.64l150 150c17.545 17.545 46.094 17.544 63.646-.008l280.787-281.213c2.809-2.813 4.386-6.625 4.386-10.599v-116c.001-3.978-1.579-7.794-4.393-10.607zm-116.606 85.607c-24.813 0-45-20.187-45-45s20.187-45 45-45 45 20.187 45 45-20.187 45-45 45z" fill="#f03800"/><path d="m507.589 80.391-38-38-46.81 46.81c8.15 8.14 13.2 19.4 13.2 31.8 0 24.81-20.19 45-45 45-12.4 0-23.66-5.05-31.8-13.2l-271.02 271.02 75 75c17.55 17.54 46.09 17.54 63.65-.01l280.78-281.21c2.81-2.81 4.39-6.63 4.39-10.6v-116c0-3.98-1.58-7.79-4.39-10.61z" fill="#c61a00"/><path d="m237.979 254.001c24.813 0 45-20.187 45-45s-20.187-45-45-45-45 20.187-45 45 20.186 45 45 45zm0-60c8.271 0 15 6.729 15 15s-6.729 15-15 15-15-6.729-15-15 6.728-15 15-15z" fill="#ffda2d"/><path d="m213.979 318.001c-24.813 0-45 20.187-45 45s20.187 45 45 45 45-20.187 45-45-20.187-45-45-45zm0 60c-8.271 0-15-6.729-15-15s6.729-15 15-15 15 6.729 15 15-6.729 15-15 15z" fill="#fdbf00"/><path d="m330.775 268.535c-1.362-8.172-9.098-13.695-17.262-12.33l-180 30c-8.172 1.362-13.692 9.09-12.33 17.262 1.223 7.337 7.577 12.537 14.777 12.537.819 0 1.65-.067 2.484-.207l180-30c8.172-1.362 13.693-9.091 12.331-17.262z" fill="#ffda2d"/><path d="m318.449 285.801-110.72 18.45 36.5-36.5 69.28-11.55c8.17-1.36 15.9 4.16 17.27 12.33 1.36 8.18-4.16 15.9-12.33 17.27z" fill="#fdbf00"/></svg>